<?xml version="1.0" encoding="UTF-8"?>
<svg width="12px" height="12px" viewBox="0 0 12 12" version="1.1" xmlns="http://www.w3.org/2000/svg" xmlns:xlink="http://www.w3.org/1999/xlink">
    <!-- Generator: Sketch 52.2 (67145) - http://www.bohemiancoding.com/sketch -->
    <title>icon_hotstarselected</title>
    <desc>Created with Sketch.</desc>
    <g id="页面-1" stroke="none" stroke-width="1" fill="none" fill-rule="evenodd">
        <g id="酒店列表-星级" transform="translate(-592.000000, -421.000000)" fill="#0075FF" fill-rule="nonzero">
            <g id="分组-31" transform="translate(360.000000, 207.000000)">
                <g id="分组-30" transform="translate(24.000000, 24.000000)">
                    <g id="分组-10" transform="translate(160.000000, 98.000000)">
                        <g id="icon_hotstarselected-2" transform="translate(48.000000, 92.000000)">
                            <path d="M9.21673096,11.4140625 C9.10423096,11.4140625 8.99173096,11.3875 8.88860596,11.3328125 L5.96516846,9.7953125 L3.04173096,11.3328125 C2.80266846,11.4578125 2.51829346,11.4375 2.29954346,11.2796875 C2.08079346,11.1203125 1.97298096,10.85625 2.01985596,10.590625 L2.57766846,7.3359375 L0.213605958,5.0296875 C0.0198559578,4.840625 -0.0488940422,4.5640625 0.0354809578,4.3078125 C0.118293458,4.0515625 0.337043458,3.8671875 0.604230958,3.828125 L3.87141846,3.353125 L5.33235596,0.3921875 C5.45266846,0.15 5.69329346,-1.46727075e-12 5.96360596,-1.46727075e-12 C6.23391846,-1.46727075e-12 6.47610596,0.15 6.59485596,0.3921875 L8.05891846,3.353125 L11.3276685,3.828125 C11.594856,3.8671875 11.813606,4.05 11.8964185,4.3078125 C11.979231,4.5640625 11.9120435,4.8421875 11.7182935,5.0296875 L9.35266846,7.334375 L9.91048096,10.5890625 C9.95579346,10.8546875 9.84798096,11.11875 9.63079346,11.278125 C9.50735596,11.36875 9.36204346,11.4140625 9.21673096,11.4140625 Z M1.20579346,4.6875 L3.31985596,6.7484375 C3.48548096,6.9109375 3.56204346,7.14375 3.52298096,7.371875 L3.02454346,10.2828125 L5.63704346,8.909375 C5.84173096,8.8015625 6.08704346,8.8015625 6.29329346,8.909375 L8.90735596,10.2828125 L8.40891846,7.371875 C8.36985596,7.14375 8.44485596,6.909375 8.61204346,6.7484375 L10.726106,4.6875 L7.80423096,4.2625 C7.57454346,4.2296875 7.37610596,4.084375 7.27454346,3.8765625 L5.96516846,1.2296875 L4.65891846,3.878125 C4.55579346,4.0859375 4.35735596,4.2296875 4.12766846,4.2640625 L1.20579346,4.6875 Z" id="icon_hotstarselected"></path>
                        </g>
                    </g>
                </g>
            </g>
        </g>
    </g>
</svg>